<?xml version="1.0" encoding="UTF-8" standalone="no" ?>
<!DOCTYPE svg PUBLIC "-//W3C//DTD SVG 1.1//EN" "http://www.w3.org/Graphics/SVG/1.1/DTD/svg11.dtd">
<svg xmlns="http://www.w3.org/2000/svg" xmlns:xlink="http://www.w3.org/1999/xlink" version="1.1" width="640" height="480" viewBox="0 0 640 480" xml:space="preserve">
<desc>Created with Fabric.js 3.6.6</desc>
<defs>
</defs>
<g transform="matrix(0.31 0 0 0.31 325.07 200.05)"  >
<g style=""   >
		<g transform="matrix(1 0 0 1 287.9 -2.4)"  >
<path style="stroke: none; stroke-width: 1; stroke-dasharray: none; stroke-linecap: butt; stroke-dashoffset: 0; stroke-linejoin: miter; stroke-miterlimit: 4; fill: rgb(255,255,255); fill-rule: nonzero; opacity: 1;"  transform=" translate(-1179.5, -267.5)" d="M 646 221 c 39 0 60 29 60 65 v 13 h -95 c 3 24 20 37 41 37 c 22 0 39 -16 39 -16 l 14 24 s -21 21 -55 21 c -46 0 -74 -33 -74 -72 c 0 -42 28 -72 70 -72 z m 25 54 c 0 -16 -11 -27 -25 -27 c -18 0 -30 10 -34 27 z M 747 206 c 0 -3 -3 -6 -6 -6 h -12 v -30 h 35 c 12 0 18 6 18 19 v 137 c 0 4 2 6 6 6 h 42 c 3 0 5 -2 5 -6 v -12 h 33 v 29 c 0 13 -6 19 -19 19 h -84 c -13 0 -18 -6 -18 -19 V 206 Z M 963 276 h 5 v -2 c 0 -19 -8 -26 -26 -26 c -6 0 -18 1 -18 9 v 7 h -32 v -15 c 0 -25 36 -28 51 -28 c 45 0 59 24 59 55 v 51 c 0 4 2 6 6 6 h 11 v 29 h -31 c -13 0 -18 -7 -18 -15 l 1 -6 h -1 s -10 24 -41 24 c -25 0 -47 -15 -47 -43 c 0 -43 59 -46 81 -46 z m -26 62 c 18 0 31 -19 31 -36 v -3 h -6 c -17 0 -46 2 -46 21 c 0 10 7 18 21 18 z M 1048 205 c 0 -4 -2 -5 -6 -5 h -11 v -30 h 33 c 12 0 18 6 18 19 v 40 l -1 11 h 1 s 12 -19 41 -19 c 37 0 61 29 61 72 c 0 44 -27 72 -63 72 c -29 0 -41 -19 -41 -19 h -1 l 1 9 v 7 h -32 V 205 Z m 67 131 c 19 0 34 -15 34 -42 s -14 -44 -34 -44 c -17 0 -34 13 -34 44 c 0 21 11 42 34 42 z M 1222 200 h -17 v -30 h 109 c 13 0 18 6 18 19 v 29 h -32 v -12 c 0 -3 -2 -6 -6 -6 h -37 v 55 h 62 v 29 h -62 v 78 h -35 V 200 Z M 1410 200 h -29 c -4 0 -6 3 -6 6 v 12 h -31 v -30 c 0 -13 4 -18 17 -18 h 133 c 13 0 18 5 18 18 v 30 h -31 v -12 c 0 -3 -2 -6 -6 -6 h -30 v 162 h -35 V 200 Z M 1538 206 c -1 -4 -4 -6 -8 -6 h -5 v -30 h 23 c 13 0 20 4 23 16 l 26 114 l 4 20 l 4 -20 l 35 -129 h 30 l 33 129 c 3 11 3 20 3 20 h 1 l 3 -20 l 27 -114 c 2 -12 10 -16 23 -16 h 23 v 30 h -5 c -5 0 -7 2 -9 6 l -39 156 h -41 l -29 -109 l -5 -23 h -1 s -1 11 -5 23 l -30 109 h -41 z" stroke-linecap="round" />
</g>
		<g transform="matrix(1 0 0 1 -649.1 0.1)"  >
<path style="stroke: none; stroke-width: 1; stroke-dasharray: none; stroke-linecap: butt; stroke-dashoffset: 0; stroke-linejoin: miter; stroke-miterlimit: 4; fill: rgb(255,255,255); fill-rule: nonzero; opacity: 1;"  transform=" translate(-242.5, -270)" d="M 243 528 h -1 h 1 z M 246 540 h -7 L 0 402 V 122 L 210 1 v 171 l -8 3 a 99 99 0 1 0 79 0 l -7 -3 V 0 l 211 122 v 280 Z M 25 388 l 217 125 l 218 -125 V 136 L 299 43 v 113 a 124 124 0 1 1 -114 0 V 44 L 25 136 v 252 z M 462 401 l 11 -6" stroke-linecap="round" />
</g>
		<g transform="matrix(1 0 0 1 -649.1 -2.25)"  >
<path style="stroke: none; stroke-width: 1; stroke-dasharray: none; stroke-linecap: butt; stroke-dashoffset: 0; stroke-linejoin: miter; stroke-miterlimit: 4; fill: rgb(255,255,255); fill-rule: nonzero; opacity: 1;"  transform=" translate(-242.5, -267.65)" d="M 319 228 H 166 a 86 86 0 1 0 153 0 z m -114 34 a 12 12 0 1 1 0 -23 a 12 12 0 0 1 0 23 z m 40 27 a 14 14 0 1 1 0 -28 a 14 14 0 0 1 0 28 z m 37 -24 a 14 14 0 1 1 0 -29 a 14 14 0 0 1 0 29 z M 270 196 a 14 14 0 1 1 -28 0 a 14 14 0 0 1 28 0 z M 235 206 a 10 10 0 1 1 -19 0 a 10 10 0 0 1 19 0 z" stroke-linecap="round" />
</g>
</g>
</g>
<g transform="matrix(0.35 0 0 0.35 391.98 257.52)"  >
<g style=""   >
		<g transform="matrix(1 0 0 1 -235.59 0)" id="Layer_1"  >
<path style="stroke: none; stroke-width: 1; stroke-dasharray: none; stroke-linecap: butt; stroke-dashoffset: 0; stroke-linejoin: miter; stroke-miterlimit: 4; fill: rgb(31,43,125); fill-rule: nonzero; opacity: 1;"  transform=" translate(-47.86, -72.35)" d="M 94.1 2.9 S 76.3 0 47.8 0 C 19.4 0 1.6 2.9 1.6 2.9 S -8 73.7 19.9 116.1 c 9.5 14.4 27.9 28.5 27.9 28.6 c 0.1 0 18.5 -14.2 27.9 -28.6 C 103.8 73.7 94.1 2.9 94.1 2.9 z" stroke-linecap="round" />
</g>
		<g transform="matrix(1 0 0 1 -274.25 -52.98)" id="Layer_1"  >
<path style="stroke: none; stroke-width: 1; stroke-dasharray: none; stroke-linecap: butt; stroke-dashoffset: 0; stroke-linejoin: miter; stroke-miterlimit: 4; fill: rgb(0,0,0); fill-rule: nonzero; opacity: 1;"  transform=" translate(-9.2, -19.37)" d="M 7.8 19.3 c 0.1 0.4 0.2 0.6 0.2 0.6 c 0.6 -0.9 1.8 -1 2.6 -0.9 c -0.6 -0.2 -1.9 -0.3 -2.8 0.3 z" stroke-linecap="round" />
</g>
		<g transform="matrix(1 0 0 1 -272.6 -47.85)" id="Layer_1"  >
<path style="stroke: none; stroke-width: 1; stroke-dasharray: none; stroke-linecap: butt; stroke-dashoffset: 0; stroke-linejoin: miter; stroke-miterlimit: 4; fill: none; fill-rule: nonzero; opacity: 1;"  transform=" translate(-10.85, -24.5)" d="M 10.7 24.4 c 0.1 0.1 0.2 0.2 0.3 0.2 c -0.1 0 -0.2 -0.1 -0.3 -0.2 z" stroke-linecap="round" />
</g>
		<g transform="matrix(1 0 0 1 -255.85 -38.8)" id="Layer_1"  >
<path style="stroke: none; stroke-width: 1; stroke-dasharray: none; stroke-linecap: butt; stroke-dashoffset: 0; stroke-linejoin: miter; stroke-miterlimit: 4; fill: rgb(0,0,0); fill-rule: nonzero; opacity: 1;"  transform=" translate(-27.6, -33.55)" d="M 10.8 22.1 c 0.1 0 0.1 0 0.2 0.1 h 0.1 v -0.1 c -0.4 -0.1 -0.9 -0.3 -1 -0.3 h -0.2 l 0.9 0.3 z m -1.1 3.4 s -0.1 0 0 0 h -0.1 v 0.1 c 0.1 -0.1 0.3 -0.1 0.4 -0.2 c -0.2 0.1 -0.3 0.1 -0.3 0.1 z m 11.6 15.2 c 0.2 0.2 0.4 0.3 0.5 0.4 l 0.1 0.1 c 0.1 0.1 0.2 0.2 0.2 0.3 l 0.2 0.2 l 0.1 0.1 c 0.3 0.3 0.5 0.7 0.5 1.1 v -1.2 l -0.7 -0.7 l -0.9 -0.3 z m 10 -9.8 l 1.1 4.4 h -2.5 c 0.2 0 0.4 0 0.6 0.1 c 0.9 0.1 1.7 0 2.5 -0.1 l -0.6 -2.2 l -1.1 -2.2 z M 17.9 17.5 c -0.1 0 -0.7 -0.2 -1 -0.2 c -0.3 -0.1 -0.7 -0.3 -1.2 -0.3 c -0.4 0 -2.2 0.9 -2.2 0.9 c 0.1 0 1.2 -0.4 1.5 -0.4 h 0.4 c 0 0.2 0.2 0.3 0.5 0.3 s 0.5 -0.2 0.6 -0.3 c 0.4 0.1 0.9 0.1 1.2 0.1 c 0.1 0 0.2 -0.1 0.2 -0.1 z m 2.1 7.9 s 0.1 0 0.1 0.1 h 0.1 s 0.1 0 0.1 0.1 c 0.1 0 0.1 0.1 0.2 0.1 h 0.1 l 0.1 0.1 h 0.1 c 0.1 0 0.2 0.1 0.2 0.1 h 0.1 c 0.3 0.2 1.1 0.6 2.1 0.6 c -0.9 -0.2 -1.6 -0.6 -1.6 -0.6 c -1 -0.6 -1.6 -0.8 -1.9 -0.7 c 0.2 0.2 0.2 0.2 0.3 0.2 z m -8.8 -0.6 l -0.2 -0.2 c -0.2 0.4 -0.4 0.6 -0.6 0.7 H 10 c 0.2 0 0.5 0 0.8 -0.1 c 0.1 0.1 0.3 -0.1 0.4 -0.4 c 0 0.1 0 0 0 0 z m 1 -2.3 c 0.3 -0.6 0.5 -1.3 0.5 -2.3 V 19 s -0.2 -0.5 -0.6 -0.3 c 0 0 0.2 0.1 0.2 0.5 v 1 c -0.1 0.8 -0.3 1.6 -0.5 2.3 l 0.4 0.4 c 0.1 0.1 0.3 0.4 0.2 0.8 c -0.2 0.4 -0.4 1 -0.6 1.1 c 0 0 -0.1 0.1 -0.1 0.2 l 0.2 0.4 c 0.1 0 0.1 -0.4 0.3 -0.6 c 0.1 -0.2 0.4 -0.7 0.6 -1.1 c 0.1 -0.4 -0.1 -0.7 -0.2 -0.8 l -0.4 -0.4 z M 36.6 29 l 2.4 2.4 l -0.3 0.3 l -0.1 0.1 l -0.2 0.2 l -0.1 0.1 l -0.2 0.2 l -0.1 0.1 l -0.2 0.2 l -0.1 0.1 c -0.1 0 -0.1 0.1 -0.2 0.1 s -0.1 0.1 -0.2 0.1 l -0.1 0.1 c -0.1 0 -0.1 0.1 -0.2 0.1 l -0.1 0.1 c -0.1 0 -0.1 0.1 -0.2 0.1 l -0.1 0.1 c -0.1 0 -0.1 0.1 -0.2 0.1 c 0 0 -0.1 0 -0.1 0.1 c -0.1 0.1 -0.2 0.1 -0.2 0.2 c -0.6 0.4 -1.3 0.7 -2 1 l 0.1 0.2 c 2.2 -0.6 4 -2 5.5 -3.7 L 38 29.6 l -1.4 -0.6 z m 8.1 -10.8 c -0.1 0.4 -0.2 0.9 -0.3 1.6 v 0.1 c 0 0.1 0 0.2 -0.1 0.3 v 0.4 c 0 0.1 0 0.2 -0.1 0.2 v 0.1 c 0 0.1 -0.1 0.2 -0.1 0.4 v 0.1 c 0 0.1 -0.1 0.2 -0.1 0.4 c 0 0.1 -0.1 0.3 -0.1 0.4 v 0.1 l -0.3 0.9 l -0.6 1.5 l 0.6 0.1 c 1.5 -3.8 2 -7.1 2 -7.1 c -0.4 0.2 -0.7 0.4 -0.9 0.5 z m -5.3 6.1 l 3.1 1.4 l -0.3 0.6 c -0.6 1.4 -1.4 2.9 -2.4 4.2 l 0.5 0.3 c 1.2 -1.5 2.1 -3.3 2.9 -5 l -3 -1.3 l -0.8 -0.2 z M 25.2 40.5 h -0.7 c -1.4 3 -0.4 6.8 -0.4 6.8 h 0.2 c 2 0.5 3.8 1.4 4.1 1.6 h 0.6 s -2 -1.2 -4.3 -1.6 c 0 0.2 -1.1 -3.8 0.5 -6.8 z m -4.8 8.3 h -0.3 c -0.1 0 -0.2 0 -0.3 0.1 c -0.1 0 -0.2 0.1 -0.3 0.1 c -0.1 0 -0.2 0.1 -0.3 0.1 c -0.1 0 -0.2 0.1 -0.3 0.1 c -0.1 0 -0.2 0.1 -0.3 0.1 c -0.2 0.1 -0.4 0.2 -0.5 0.3 c -0.1 0.2 -0.1 0.3 -0.1 0.5 c 0 0 1.7 -1.2 3.2 -1.3 c 2.4 -0.2 3.8 0 6.7 0.2 c -3.5 -0.3 -5 -0.5 -7.5 -0.2 z" stroke-linecap="round" />
</g>
		<g transform="matrix(1 0 0 1 -257.53 -39.9)" id="Layer_1"  >
<path style="stroke: none; stroke-width: 1; stroke-dasharray: none; stroke-linecap: butt; stroke-dashoffset: 0; stroke-linejoin: miter; stroke-miterlimit: 4; fill: rgb(255,255,255); fill-rule: nonzero; opacity: 1;"  transform=" translate(-25.92, -32.45)" d="M 16.4 17.5 c -0.1 0.1 -0.3 0.3 -0.6 0.3 s -0.5 -0.1 -0.5 -0.3 h -0.4 c -0.2 0 -1.4 0.4 -1.5 0.4 c 0 0 1.8 -0.9 2.2 -0.9 c 0.5 0 0.9 0.2 1.2 0.3 c 0.3 0.1 1 0.2 1 0.2 c 0.1 0 -0.1 0.1 -0.3 0.1 c -0.2 0.1 -0.7 0.1 -1.1 -0.1 z m 6.4 25.3 c 0 -0.3 -0.2 -0.7 -0.5 -1.1 l -0.1 -0.1 c -0.1 -0.1 -0.1 -0.2 -0.2 -0.2 c -0.1 -0.1 -0.2 -0.2 -0.2 -0.3 l -0.1 -0.1 c -0.1 -0.1 -0.3 -0.3 -0.5 -0.4 l 1.5 0.4 v 1.8 z m 22 -25.1 c -4.9 3.6 -14.9 3.5 -16.5 3.9 c -1.6 0.4 -1.1 1.5 -1.1 1.5 c -2.2 5.7 -6.1 2.9 -6.1 2.9 c -3 -1.9 -2.5 0.1 -1.3 2.4 c -4.7 -0.6 -0.8 -7.1 0.8 -8.4 c 1.8 -1.3 3.7 -5.1 3.7 -5.1 c -0.6 0.6 -2.3 1.8 -6.9 0.9 c -2 -0.4 -3.5 0.9 -3.5 0.9 c -8.9 -0.8 -6.6 3.1 -6.6 3.1 c 1 -1.5 3.7 -0.8 3.7 -0.8 c 0 0.5 0.3 0.8 0.6 1 c -0.1 0.6 -0.2 1.4 -0.5 2.2 c -0.3 -0.1 -1.1 -0.4 -1.4 -0.4 c -0.7 0.1 -0.6 1.1 -1.4 1.4 c 0.1 0.2 0.4 0.4 0.8 0.5 c -0.3 0.4 -0.3 1 -0.3 1.1 c 0 0.3 0.2 0.4 0.2 0.5 v 0.4 c 0.2 -0.1 0.4 -0.2 0.6 -0.2 c 0.1 0 0.6 0 0.8 -0.1 c 0.2 -0.1 0.4 -0.3 0.6 -0.7 c 0.1 0 0.1 0.1 0.1 0.1 c 0.1 0.1 0.3 0.5 0.3 0.6 c 0.1 0 0.1 -0.4 0.3 -0.6 c 0.1 -0.2 0.4 -0.7 0.6 -1.1 c 0.1 -0.4 -0.1 -0.7 -0.2 -0.8 l -0.4 -0.4 c 0.2 -0.7 0.4 -1.4 0.5 -2.3 v -1 c 0 -0.4 -0.2 -0.5 -0.2 -0.5 c 0.3 -0.3 0.6 0.3 0.6 0.3 v 1.2 c 0.5 0 0.8 -0.2 0.8 -0.2 s 2.9 -0.3 3.3 0.4 c 0.4 0.7 0.3 2.6 -2.3 7.2 c -2.8 5 0.2 9.9 4.3 12 c 1.4 1 4.3 3.6 3.9 7 c 0 0 -5.3 1.1 -5.5 3.4 c 0 0 1.7 -1.2 3.2 -1.3 c 2.7 -0.2 4.2 -0.1 8.1 0.3 c 0 0 -2.1 -1.2 -4.4 -1.7 c 0 0 -1 -3.8 0.4 -6.8 h 0.2 c 1.7 -0.4 4.8 1.3 4.8 1.3 l -0.7 -1.8 c 3.2 0.5 4.8 4.3 4.8 4.3 c -0.1 -3.2 -2.2 -6.4 -4.7 -9.1 c 0.4 0.1 0.7 0.1 1 0.1 c 0.9 0.1 1.7 0 2.5 -0.1 l -1.1 -4.4 l 2.2 4.1 c 2.2 -0.6 4 -2 5.5 -3.7 L 36.6 29 l 3 1.6 c 1.2 -1.5 2.1 -3.3 2.9 -5 l -3.1 -1.4 l 3.4 0.5 c 1.5 -3.7 2 -7 2 -7 z" stroke-linecap="round" />
</g>
		<g transform="matrix(1 0 0 1 -257.75 -42.7)" id="Layer_1"  >
<path style="stroke: none; stroke-width: 1; stroke-dasharray: none; stroke-linecap: butt; stroke-dashoffset: 0; stroke-linejoin: miter; stroke-miterlimit: 4; fill: rgb(0,0,0); fill-rule: nonzero; opacity: 1;"  transform=" translate(-25.7, -29.65)" d="M 20.6 20 c -1.7 1.3 -5.6 7.8 -0.8 8.4 c -3.7 -1.2 -0.1 -7.1 1.5 -8.3 C 23.1 18.8 25 15 25 15 c -0.2 0.2 -0.6 0.4 -1 0.6 c -0.7 1.2 -2.1 3.5 -3.4 4.4 z m 8.8 15.4 c -0.2 0 -0.4 0 -0.6 -0.1 c 0.1 0.1 0.2 0.3 0.4 0.4 l 0.1 0.1 c 0.1 0.1 0.2 0.3 0.3 0.4 l 0.1 0.1 c 0.1 0.1 0.2 0.3 0.3 0.4 c 0.1 0.1 0.2 0.3 0.3 0.4 c 0.1 0.1 0.2 0.3 0.3 0.4 v 0.1 c 0.1 0.1 0.2 0.3 0.3 0.4 v 0.1 c 0.1 0.1 0.2 0.3 0.3 0.4 c 0.1 0.1 0.2 0.3 0.3 0.4 c 0.1 0.1 0.2 0.3 0.3 0.4 v 0.1 c 0.1 0.1 0.2 0.3 0.2 0.4 v 0.1 c 0.1 0.1 0.1 0.3 0.2 0.4 v 0.1 c 0.1 0.1 0.1 0.3 0.2 0.4 v 0.1 c 0.1 0.1 0.1 0.3 0.2 0.4 c 0 0 0 0.1 0.1 0.1 c 0 0.1 0.1 0.3 0.1 0.4 v 0.2 c 0 0.1 0.1 0.2 0.1 0.3 c 0 0.1 0 0.1 0.1 0.2 c 0 0.1 0 0.2 0.1 0.3 v 0.1 c 0.5 0.8 0.8 1.4 0.8 1.4 c 0.2 -2.9 -2.1 -6.3 -4.5 -8.9 z m -0.7 4.7 l 0.6 1.6 c 0.4 0.2 0.7 0.4 0.7 0.4 l -0.7 -1.8 c -0.1 -0.1 -0.4 -0.2 -0.6 -0.2 z" stroke-linecap="round" />
</g>
		<g transform="matrix(1 0 0 1 -261 -31.1)" id="Layer_1"  >
<path style="stroke: none; stroke-width: 1; stroke-dasharray: none; stroke-linecap: butt; stroke-dashoffset: 0; stroke-linejoin: miter; stroke-miterlimit: 4; fill: none; fill-rule: nonzero; opacity: 1;"  transform=" translate(-22.45, -41.25)" d="m 22.1 40.9 l 0.7 0.7 v -0.5 l -0.7 -0.2 z" stroke-linecap="round" />
</g>
		<g transform="matrix(1 0 0 1 -229.55 -52.98)" id="Layer_1"  >
<path style="stroke: none; stroke-width: 1; stroke-dasharray: none; stroke-linecap: butt; stroke-dashoffset: 0; stroke-linejoin: miter; stroke-miterlimit: 4; fill: rgb(0,0,0); fill-rule: nonzero; opacity: 1;"  transform=" translate(-53.9, -19.37)" d="m 52.5 19.3 l 0.2 0.6 c 0.6 -0.9 1.8 -1 2.6 -0.9 c -0.6 -0.2 -1.9 -0.3 -2.8 0.3 z" stroke-linecap="round" />
</g>
		<g transform="matrix(1 0 0 1 -227.9 -47.85)" id="Layer_1"  >
<path style="stroke: none; stroke-width: 1; stroke-dasharray: none; stroke-linecap: butt; stroke-dashoffset: 0; stroke-linejoin: miter; stroke-miterlimit: 4; fill: none; fill-rule: nonzero; opacity: 1;"  transform=" translate(-55.55, -24.5)" d="M 55.4 24.4 c 0.1 0.1 0.2 0.2 0.3 0.2 c -0.1 0 -0.2 -0.1 -0.3 -0.2 z" stroke-linecap="round" />
</g>
		<g transform="matrix(1 0 0 1 -211.15 -38.8)" id="Layer_1"  >
<path style="stroke: none; stroke-width: 1; stroke-dasharray: none; stroke-linecap: butt; stroke-dashoffset: 0; stroke-linejoin: miter; stroke-miterlimit: 4; fill: rgb(0,0,0); fill-rule: nonzero; opacity: 1;"  transform=" translate(-72.3, -33.55)" d="M 55.5 22.1 c 0.1 0 0.1 0 0.2 0.1 h 0.1 v -0.1 c -0.4 -0.1 -0.9 -0.3 -1 -0.3 h -0.2 l 0.9 0.3 z m -1.1 3.4 s -0.1 0 0 0 h -0.1 v 0.1 c 0.1 -0.1 0.3 -0.1 0.4 -0.2 c -0.2 0.1 -0.3 0.1 -0.3 0.1 z M 66 40.7 c 0.2 0.2 0.4 0.3 0.5 0.4 l 0.1 0.1 c 0.1 0.1 0.2 0.2 0.2 0.3 l 0.2 0.2 l 0.1 0.1 c 0.3 0.3 0.5 0.7 0.5 1.1 v -1.2 l -0.7 -0.7 l -0.9 -0.3 z m 10 -9.8 l 1.1 4.4 h -2.5 c 0.2 0 0.4 0 0.6 0.1 c 0.9 0.1 1.7 0 2.5 -0.1 l -0.6 -2.2 l -1.1 -2.2 z M 62.6 17.5 c -0.1 0 -0.7 -0.2 -1 -0.2 c -0.3 -0.1 -0.7 -0.3 -1.2 -0.3 c -0.4 0 -2.2 0.9 -2.2 0.9 c 0.1 0 1.2 -0.4 1.5 -0.4 h 0.4 c 0 0.2 0.2 0.3 0.5 0.3 s 0.5 -0.2 0.6 -0.3 c 0.4 0.1 0.9 0.1 1.2 0.1 c 0.1 0 0.2 -0.1 0.2 -0.1 z m 2.1 7.9 s 0.1 0 0.1 0.1 h 0.1 s 0.1 0 0.1 0.1 c 0.1 0 0.1 0.1 0.2 0.1 h 0.1 l 0.1 0.1 h 0.1 c 0.1 0 0.2 0.1 0.2 0.1 h 0.1 c 0.3 0.2 1.1 0.6 2.1 0.6 c -0.9 -0.2 -1.6 -0.6 -1.6 -0.6 c -1 -0.6 -1.6 -0.8 -1.9 -0.7 c 0.2 0.2 0.2 0.2 0.3 0.2 z m -8.8 -0.6 l -0.2 -0.2 c -0.2 0.4 -0.4 0.6 -0.6 0.7 h -0.4 c 0.2 0 0.5 0 0.8 -0.1 c 0.1 0.1 0.3 -0.1 0.4 -0.4 c 0 0.1 0 0 0 0 z m 1 -2.3 c 0.3 -0.6 0.5 -1.3 0.5 -2.3 V 19 s -0.2 -0.5 -0.6 -0.3 c 0 0 0.2 0.1 0.2 0.5 v 1 c -0.1 0.8 -0.3 1.6 -0.5 2.3 l 0.4 0.4 c 0.1 0.1 0.3 0.4 0.2 0.8 c -0.2 0.4 -0.4 1 -0.6 1.1 c 0 0 -0.1 0.1 -0.1 0.2 l 0.2 0.4 c 0.1 0 0.1 -0.4 0.3 -0.6 c 0.1 -0.2 0.4 -0.7 0.6 -1.1 c 0.1 -0.4 -0.1 -0.7 -0.2 -0.8 l -0.4 -0.4 z M 81.3 29 l 2.4 2.4 l -0.3 0.3 l -0.1 0.1 l -0.2 0.2 l -0.1 0.1 l -0.2 0.2 l -0.1 0.1 l -0.2 0.2 l -0.1 0.1 c -0.1 0 -0.1 0.1 -0.2 0.1 s -0.1 0.1 -0.2 0.1 l -0.1 0.1 c -0.1 0 -0.1 0.1 -0.2 0.1 l -0.1 0.1 c -0.1 0 -0.1 0.1 -0.2 0.1 l -0.1 0.1 c -0.1 0 -0.1 0.1 -0.2 0.1 c 0 0 -0.1 0 -0.1 0.1 c -0.1 0.1 -0.2 0.1 -0.2 0.2 c -0.6 0.4 -1.3 0.7 -2 1 l 0.1 0.2 c 2.2 -0.6 4 -2 5.5 -3.7 l -1.7 -1.7 l -1.4 -0.6 z m 8.1 -10.8 c -0.1 0.4 -0.2 0.9 -0.3 1.6 v 0.1 c 0 0.1 0 0.2 -0.1 0.3 v 0.4 c 0 0.1 0 0.2 -0.1 0.2 v 0.1 c 0 0.1 -0.1 0.2 -0.1 0.4 v 0.1 c 0 0.1 -0.1 0.2 -0.1 0.4 c 0 0.1 -0.1 0.3 -0.1 0.4 v 0.1 l -0.3 0.9 l -0.6 1.5 l 0.6 0.1 c 1.5 -3.8 2 -7.1 2 -7.1 c -0.4 0.2 -0.7 0.4 -0.9 0.5 z m -5.3 6.1 l 3.1 1.4 l -0.3 0.6 c -0.6 1.4 -1.4 2.9 -2.4 4.2 l 0.5 0.3 c 1.2 -1.5 2.1 -3.3 2.9 -5 l -3 -1.3 l -0.8 -0.2 z M 69.9 40.5 h -0.7 c -1.4 3 -0.4 6.8 -0.4 6.8 h 0.2 c 2 0.5 3.8 1.4 4.1 1.6 h 0.6 s -2 -1.2 -4.3 -1.6 c 0 0.2 -1.1 -3.8 0.5 -6.8 z m -4.8 8.3 h -0.3 c -0.1 0 -0.2 0 -0.3 0.1 c -0.1 0 -0.2 0.1 -0.3 0.1 c -0.1 0 -0.2 0.1 -0.3 0.1 c -0.1 0 -0.2 0.1 -0.3 0.1 c -0.1 0 -0.2 0.1 -0.3 0.1 c -0.2 0.1 -0.4 0.2 -0.5 0.3 c -0.1 0.2 -0.1 0.3 -0.1 0.5 c 0 0 1.7 -1.2 3.2 -1.3 c 2.4 -0.2 3.8 0 6.7 0.2 c -3.5 -0.3 -5 -0.5 -7.5 -0.2 z" stroke-linecap="round" />
</g>
		<g transform="matrix(1 0 0 1 -212.83 -39.8)" id="Layer_1"  >
<path style="stroke: none; stroke-width: 1; stroke-dasharray: none; stroke-linecap: butt; stroke-dashoffset: 0; stroke-linejoin: miter; stroke-miterlimit: 4; fill: rgb(255,255,255); fill-rule: nonzero; opacity: 1;"  transform=" translate(-70.62, -32.55)" d="M 61.1 17.5 c -0.1 0.1 -0.3 0.3 -0.6 0.3 s -0.5 -0.1 -0.5 -0.3 h -0.4 c -0.2 0 -1.4 0.4 -1.5 0.4 c 0 0 1.8 -0.9 2.2 -0.9 c 0.5 0 0.9 0.2 1.2 0.3 c 0.3 0.1 1 0.2 1 0.2 c 0.1 0 -0.1 0.1 -0.3 0.1 c -0.2 0.1 -0.7 0.1 -1.1 -0.1 z m 6.4 25.3 c 0 -0.3 -0.2 -0.7 -0.5 -1.1 l -0.1 -0.1 c -0.1 -0.1 -0.1 -0.2 -0.2 -0.2 c -0.1 -0.1 -0.2 -0.2 -0.2 -0.3 l -0.1 -0.1 c -0.1 -0.1 -0.3 -0.3 -0.5 -0.4 l 1.5 0.4 v 1.8 z m 22 -25.1 c -4.9 3.6 -14.9 3.5 -16.5 3.9 c -1.6 0.4 -1.1 1.5 -1.1 1.5 c -2.2 5.8 -6.2 2.9 -6.2 2.9 c -3 -1.9 -2.5 0.1 -1.3 2.4 c -4.7 -0.6 -0.8 -7.1 0.8 -8.4 c 1.9 -1.3 3.8 -5 3.8 -5 c -0.6 0.6 -2.3 1.8 -6.9 0.9 c -2 -0.4 -3.5 0.9 -3.5 0.9 c -8.9 -0.8 -6.6 3.1 -6.6 3.1 c 0.9 -1.5 3.6 -0.8 3.6 -0.8 c 0 0.5 0.3 0.8 0.6 1 c -0.1 0.6 -0.2 1.4 -0.5 2.2 c -0.3 -0.1 -1.1 -0.4 -1.4 -0.4 c -0.7 0.1 -0.6 1.1 -1.4 1.4 c 0.1 0.2 0.4 0.4 0.8 0.5 c -0.3 0.4 -0.3 1 -0.3 1.1 c 0 0.3 0.2 0.4 0.2 0.5 v 0.4 c 0.2 -0.1 0.4 -0.2 0.6 -0.2 c 0.1 0 0.6 0 0.8 -0.1 c 0.2 -0.1 0.4 -0.3 0.6 -0.7 c 0.1 0 0.1 0.1 0.1 0.1 c 0.1 0.1 0.3 0.5 0.3 0.6 c 0.1 0 0.1 -0.4 0.3 -0.6 c 0.1 -0.2 0.4 -0.7 0.6 -1.1 c 0.1 -0.4 -0.1 -0.7 -0.2 -0.8 l -0.4 -0.4 c 0.2 -0.7 0.4 -1.4 0.5 -2.3 v -1 c 0 -0.4 -0.2 -0.5 -0.2 -0.5 c 0.3 -0.3 0.6 0.3 0.6 0.3 v 1.2 c 0.5 0 0.8 -0.2 0.8 -0.2 s 2.9 -0.3 3.3 0.4 c 0.4 0.7 0.3 2.6 -2.3 7.2 c -2.8 5 0.2 9.9 4.3 12 c 1.4 1 4.3 3.6 3.9 7 c 0 0 -5.3 1.1 -5.5 3.4 c 0 0 1.7 -1.2 3.2 -1.3 c 2.7 -0.2 4.2 -0.1 8.1 0.3 c 0 0 -2.1 -1.2 -4.4 -1.7 c 0 0 -1 -3.8 0.4 -6.8 h 0.2 c 1.7 -0.4 4.8 1.3 4.8 1.3 l -0.7 -1.8 c 3.2 0.5 4.8 4.3 4.8 4.3 c -0.1 -3.2 -2.2 -6.4 -4.7 -9.1 c 0.4 0.1 0.7 0.1 1 0.1 c 0.9 0.1 1.7 0 2.5 -0.1 l -0.9 -4.4 l 2.2 4.1 c 2.2 -0.6 4 -2 5.5 -3.7 L 81.3 29 l 3 1.6 c 1.2 -1.5 2.1 -3.3 2.9 -5 l -3.1 -1.4 l 3.4 0.5 c 1.5 -3.7 2 -7 2 -7 z" stroke-linecap="round" />
</g>
		<g transform="matrix(1 0 0 1 -213.05 -42.7)" id="Layer_1"  >
<path style="stroke: none; stroke-width: 1; stroke-dasharray: none; stroke-linecap: butt; stroke-dashoffset: 0; stroke-linejoin: miter; stroke-miterlimit: 4; fill: rgb(0,0,0); fill-rule: nonzero; opacity: 1;"  transform=" translate(-70.4, -29.65)" d="M 65.3 20 c -1.7 1.3 -5.6 7.8 -0.8 8.4 c -3.7 -1.2 -0.1 -7.1 1.5 -8.3 c 1.8 -1.3 3.7 -5.1 3.7 -5.1 c -0.2 0.2 -0.6 0.4 -1 0.6 c -0.7 1.2 -2.1 3.5 -3.4 4.4 z m 8.8 15.4 c -0.2 0 -0.4 0 -0.6 -0.1 c 0.1 0.1 0.2 0.3 0.4 0.4 l 0.1 0.1 c 0.1 0.1 0.2 0.3 0.3 0.4 l 0.1 0.1 c 0.1 0.1 0.2 0.3 0.3 0.4 c 0.1 0.1 0.2 0.3 0.3 0.4 c 0.1 0.1 0.2 0.3 0.3 0.4 v 0.1 c 0.1 0.1 0.2 0.3 0.3 0.4 v 0.1 c 0.1 0.1 0.2 0.3 0.3 0.4 c 0.1 0.1 0.2 0.3 0.3 0.4 c 0.1 0.1 0.2 0.3 0.3 0.4 v 0.1 c 0.1 0.1 0.2 0.3 0.2 0.4 v 0.1 c 0.1 0.1 0.1 0.3 0.2 0.4 v 0.1 c 0.1 0.1 0.1 0.3 0.2 0.4 v 0.1 c 0.1 0.1 0.1 0.3 0.2 0.4 c 0 0 0 0.1 0.1 0.1 c 0 0.1 0.1 0.3 0.1 0.4 v 0.2 c 0 0.1 0.1 0.2 0.1 0.3 c 0 0.1 0 0.1 0.1 0.2 c 0 0.1 0 0.2 0.1 0.3 v 0.1 c 0.5 0.8 0.8 1.4 0.8 1.4 c 0.2 -2.9 -2.1 -6.3 -4.5 -8.9 z m -0.7 4.7 l 0.6 1.6 c 0.4 0.2 0.7 0.4 0.7 0.4 l -0.7 -1.8 c -0.1 -0.1 -0.4 -0.2 -0.6 -0.2 z" stroke-linecap="round" />
</g>
		<g transform="matrix(1 0 0 1 -216.3 -31.1)" id="Layer_1"  >
<path style="stroke: none; stroke-width: 1; stroke-dasharray: none; stroke-linecap: butt; stroke-dashoffset: 0; stroke-linejoin: miter; stroke-miterlimit: 4; fill: none; fill-rule: nonzero; opacity: 1;"  transform=" translate(-67.15, -41.25)" d="m 66.8 40.9 l 0.7 0.7 v -0.5 l -0.7 -0.2 z" stroke-linecap="round" />
</g>
		<g transform="matrix(1 0 0 1 -255.05 19.7)" id="Layer_1"  >
<path style="stroke: none; stroke-width: 1; stroke-dasharray: none; stroke-linecap: butt; stroke-dashoffset: 0; stroke-linejoin: miter; stroke-miterlimit: 4; fill: rgb(0,0,0); fill-rule: nonzero; opacity: 1;"  transform=" translate(-28.4, -92.05)" d="M 26.6 92 c 0.1 0.4 0.3 0.7 0.3 0.7 c 0.7 -1.1 2.2 -1.3 3.3 -1.2 c -0.8 -0.1 -2.5 -0.3 -3.6 0.5 z" stroke-linecap="round" />
</g>
		<g transform="matrix(1 0 0 1 -253.05 26.25)" id="Layer_1"  >
<path style="stroke: none; stroke-width: 1; stroke-dasharray: none; stroke-linecap: butt; stroke-dashoffset: 0; stroke-linejoin: miter; stroke-miterlimit: 4; fill: none; fill-rule: nonzero; opacity: 1;"  transform=" translate(-30.4, -98.6)" d="M 30.2 98.5 c 0.1 0.1 0.2 0.2 0.4 0.2 c -0.1 0 -0.3 -0.1 -0.4 -0.2 z" stroke-linecap="round" />
</g>
		<g transform="matrix(1 0 0 1 -232.1 37.6)" id="Layer_1"  >
<path style="stroke: none; stroke-width: 1; stroke-dasharray: none; stroke-linecap: butt; stroke-dashoffset: 0; stroke-linejoin: miter; stroke-miterlimit: 4; fill: rgb(0,0,0); fill-rule: nonzero; opacity: 1;"  transform=" translate(-51.35, -109.95)" d="M 30.3 95.5 c 0.1 0 0.1 0 0 0 c 0.1 0 0.2 0.1 0.2 0.1 h 0.1 v -0.1 c -0.5 -0.1 -1.1 -0.4 -1.3 -0.3 c -0.1 0 -0.1 0 -0.2 0.1 c 0.4 0 0.9 0.1 1.2 0.2 z M 29 99.8 c -0.1 0 -0.1 0 0 0 H 28.7 v 0.2 c 0.2 -0.1 0.3 -0.2 0.5 -0.2 H 29 z m 14.5 19.1 l 0.6 0.6 l 0.1 0.1 l 0.3 0.3 c 0.1 0.1 0.2 0.2 0.2 0.3 c 0 0 0 0.1 0.1 0.1 c 0.3 0.4 0.6 0.9 0.6 1.3 V 120 c -0.3 -0.4 -0.7 -0.7 -0.9 -0.9 l -1 -0.2 z M 56 106.6 l 1.4 5.5 c -0.1 0 -0.2 0 -0.4 0.1 h -2.7 c 0.2 0 0.5 0.1 0.7 0.1 c 1.1 0.1 2.2 0 3.2 -0.1 l -0.7 -2.7 l -1.5 -2.9 z M 39.2 89.8 c -0.1 0 -0.9 -0.2 -1.3 -0.3 c -0.4 -0.1 -0.9 -0.3 -1.5 -0.3 c -0.5 0 -2.7 1.2 -2.7 1.2 c 0.1 0 1.5 -0.5 1.8 -0.5 h 0.4 c 0 0.3 0.3 0.4 0.7 0.4 c 0.4 0 0.7 -0.3 0.7 -0.4 c 0.5 0.2 1.2 0.2 1.5 0.1 c 0.3 -0.1 0.5 -0.2 0.4 -0.2 z m 2.7 9.9 c 0.1 0 0.1 0 0.2 0.1 h 0.1 s 0.1 0 0.1 0.1 c 0.1 0 0.1 0.1 0.2 0.1 c 0 0 0.1 0 0.1 0.1 c 0.1 0 0.1 0.1 0.2 0.1 c 0 0 0.1 0 0.1 0.1 c 0.1 0.1 0.2 0.1 0.3 0.2 h 0.2 c 0.3 0.2 1.4 0.8 2.7 0.8 a 5 5 0 0 1 -2 -0.8 c -1.3 -0.8 -2 -1 -2.4 -0.9 c 0 0 0.1 0.1 0.2 0.1 z m -11.1 -0.8 l -0.2 -0.2 c -0.2 0.5 -0.5 0.8 -0.7 0.9 c 0 0 -0.1 0 -0.1 0.1 H 29.5 c 0.2 0 0.7 0 1 -0.2 c 0 0 0.2 -0.2 0.3 -0.6 c 0.1 0.1 0.1 0.1 0 0 c 0.1 0.1 0 0 0 0 z m 1.3 -2.9 c 0.3 -0.7 0.6 -1.7 0.6 -2.9 V 91.7 s -0.3 -0.7 -0.7 -0.3 c 0 0 0.2 0.1 0.3 0.6 v 1.3 c -0.1 1 -0.3 2 -0.6 2.8 c 0.1 0.2 0.4 0.4 0.5 0.5 c 0.1 0.1 0.4 0.5 0.2 1 s -0.5 1.2 -0.7 1.4 c 0 0.1 -0.1 0.1 -0.1 0.2 c 0.1 0.2 0.2 0.4 0.3 0.5 c 0.1 0 0.1 -0.5 0.3 -0.7 c 0.2 -0.2 0.5 -0.9 0.7 -1.4 c 0.2 -0.5 -0.1 -0.9 -0.2 -1 c -0.3 -0.3 -0.5 -0.4 -0.6 -0.6 z m 30.7 8.3 l 3 3 c -0.1 0.1 -0.2 0.3 -0.3 0.4 l -0.1 0.1 l -0.3 0.3 l -0.1 0.1 l -0.2 0.2 c -0.1 0 -0.1 0.1 -0.2 0.1 l -0.2 0.2 l -0.2 0.2 l -0.2 0.2 l -0.2 0.2 c -0.1 0.1 -0.1 0.1 -0.2 0.1 l -0.2 0.2 c -0.1 0 -0.1 0.1 -0.2 0.1 c -0.1 0.1 -0.2 0.1 -0.2 0.2 l -0.1 0.1 c -0.1 0.1 -0.2 0.1 -0.3 0.2 c 0 0 -0.1 0 -0.1 0.1 c -0.1 0.1 -0.2 0.1 -0.3 0.2 h -0.1 c -0.8 0.5 -1.7 0.9 -2.6 1.2 l 0.2 0.3 c 2.8 -0.8 5.1 -2.5 6.9 -4.6 l -2.2 -2.2 l -1.6 -0.9 z m 10.1 -13.6 c -0.1 0.5 -0.2 1.1 -0.4 2 v 0.1 c 0 0.1 -0.1 0.3 -0.1 0.4 c 0 0.1 0 0.2 -0.1 0.2 v 0.2 c 0 0.1 -0.1 0.2 -0.1 0.3 v 0.1 c 0 0.1 -0.1 0.3 -0.1 0.5 v 0.1 c 0 0.2 -0.1 0.3 -0.1 0.5 v 0.1 c -0.1 0.2 -0.1 0.4 -0.2 0.5 v 0.1 c -0.1 0.4 -0.2 0.8 -0.4 1.2 c -0.2 0.6 -0.4 1.3 -0.7 1.9 l 0.8 0.1 c 1.9 -4.7 2.5 -8.9 2.5 -8.9 c -0.5 0.2 -0.8 0.4 -1.1 0.6 z m -6.7 7.6 l 3.9 1.7 c -0.1 0.3 -0.2 0.5 -0.3 0.8 c -0.8 1.8 -1.8 3.6 -3 5.2 l 0.6 0.3 c 1.5 -1.9 2.7 -4.1 3.6 -6.3 l -3.7 -1.7 h -1.1 z m -17.8 20.4 H 47.5 c -1.8 3.7 -0.5 8.5 -0.5 8.5 c 0.1 0 0.2 0 0.3 0.1 c 2.5 0.6 4.8 1.8 5.2 2 h 0.7 s -2.5 -1.5 -5.4 -2.1 c 0 0.2 -1.4 -4.8 0.6 -8.5 z m -6 10.3 c -0.1 0 -0.3 0 -0.4 0.1 c -0.1 0 -0.2 0 -0.4 0.1 c -0.1 0 -0.2 0.1 -0.4 0.1 c -0.1 0 -0.2 0.1 -0.4 0.1 c -0.1 0 -0.2 0.1 -0.3 0.1 c -0.1 0 -0.2 0.1 -0.3 0.2 c -0.2 0.1 -0.5 0.2 -0.7 0.3 c -0.1 0.2 -0.1 0.4 -0.2 0.7 c 0 0 2.2 -1.5 4 -1.6 c 3 -0.3 4.8 0 8.4 0.2 c -4.3 -0.4 -6.1 -0.6 -9.3 -0.3 z" stroke-linecap="round" />
</g>
		<g transform="matrix(1 0 0 1 -234.07 36.3)" id="Layer_1"  >
<path style="stroke: none; stroke-width: 1; stroke-dasharray: none; stroke-linecap: butt; stroke-dashoffset: 0; stroke-linejoin: miter; stroke-miterlimit: 4; fill: rgb(255,255,255); fill-rule: nonzero; opacity: 1;"  transform=" translate(-49.38, -108.65)" d="M 37.4 89.8 c -0.1 0.1 -0.3 0.4 -0.7 0.4 c -0.4 0 -0.7 -0.1 -0.7 -0.4 h -0.4 c -0.3 0.1 -1.7 0.6 -1.8 0.5 c 0 0 2.2 -1.2 2.7 -1.2 c 0.6 0 1.1 0.2 1.5 0.3 c 0.4 0.1 1.2 0.3 1.3 0.3 c 0.1 0 -0.1 0.1 -0.3 0.2 c -0.5 0.1 -1.2 0.1 -1.6 -0.1 z m 8 31.8 c 0 -0.4 -0.3 -0.9 -0.6 -1.3 c 0 0 0 -0.1 -0.1 -0.1 c -0.1 -0.1 -0.2 -0.2 -0.2 -0.3 l -0.3 -0.3 s 0 -0.1 -0.1 -0.1 l -0.6 -0.6 l 1.9 0.5 v 2.2 z M 73 90 c -6.1 4.6 -18.7 4.3 -20.7 4.9 c -2 0.5 -1.4 1.9 -1.4 1.9 c -2.8 7.2 -7.7 3.7 -7.7 3.7 c -3.8 -2.3 -3.1 0.1 -1.6 3.1 c -5.9 -0.7 -1 -8.9 1.1 -10.5 c 2.2 -1.7 4.7 -6.4 4.7 -6.4 c -0.7 0.8 -2.8 2.3 -8.6 1.1 c -2.6 -0.5 -4.4 1.1 -4.4 1.1 c -11.2 -1 -8.3 3.9 -8.3 3.9 c 1.2 -1.9 4.5 -1 4.5 -1 c 0 0.7 0.4 1 0.8 1.2 c -0.1 0.8 -0.3 1.8 -0.6 2.7 c -0.4 -0.1 -1.4 -0.5 -1.7 -0.4 c -0.9 0.1 -0.8 1.4 -1.7 1.8 c 0.1 0.2 0.5 0.5 1 0.6 c -0.4 0.5 -0.4 1.3 -0.4 1.4 c 0 0.4 0.3 0.5 0.3 0.6 v 0.5 c 0.3 -0.1 0.5 -0.3 0.7 -0.3 c 0.2 0 0.7 0 1 -0.2 c 0.2 -0.1 0.5 -0.4 0.7 -0.9 c 0.1 0 0.1 0.1 0.2 0.1 c 0.2 0.2 0.4 0.7 0.4 0.7 c 0.1 0 0.1 -0.5 0.3 -0.7 c 0.2 -0.2 0.5 -0.9 0.7 -1.4 c 0.2 -0.5 -0.1 -0.9 -0.2 -1 c -0.1 -0.1 -0.4 -0.3 -0.5 -0.5 c 0.3 -0.8 0.5 -1.8 0.6 -2.8 c 0 0 0.1 -0.8 0 -1.3 c 0 -0.5 -0.3 -0.6 -0.3 -0.6 c 0.4 -0.3 0.7 0.3 0.7 0.3 v 1.5 c 0.6 -0.1 1 -0.2 1 -0.2 s 3.6 -0.4 4.1 0.5 c 0.6 0.9 0.3 3.2 -2.9 9 c -3.5 6.3 0.2 12.4 5.4 15.1 c 1.7 1.3 5.3 4.5 4.9 8.8 c 0 0 -6.6 1.3 -6.9 4.3 c 0 0 2.2 -1.5 4 -1.6 c 3.4 -0.3 5.2 -0.1 10.1 0.4 c 0 0 -2.7 -1.5 -5.5 -2.1 c 0 0 -1.3 -4.8 0.5 -8.5 h 0.2 c 2.2 -0.5 6 1.7 6 1.7 l -0.9 -2.3 c 4 0.6 6 5.4 6 5.4 c -0.1 -4 -2.8 -8 -5.9 -11.4 c 0.4 0.1 0.9 0.1 1.3 0.2 c 1.1 0.1 2.2 0 3.2 -0.1 l -1.4 -5.5 l 2.8 5.2 c 2.8 -0.8 5.1 -2.5 6.9 -4.6 l -3 -3 l 3.7 2 c 1.5 -1.9 2.7 -4.1 3.6 -6.3 l -3.9 -1.7 l 4.3 0.7 C 72.4 94.2 73 90 73 90 z" stroke-linecap="round" />
</g>
		<g transform="matrix(1 0 0 1 -234.05 32.9)" id="Layer_1"  >
<path style="stroke: none; stroke-width: 1; stroke-dasharray: none; stroke-linecap: butt; stroke-dashoffset: 0; stroke-linejoin: miter; stroke-miterlimit: 4; fill: rgb(0,0,0); fill-rule: nonzero; opacity: 1;"  transform=" translate(-49.4, -105.25)" d="M 42.7 92.9 c -2.1 1.6 -7 9.8 -1.1 10.5 c -4.7 -1.5 -0.1 -8.9 1.9 -10.4 c 2.2 -1.7 4.7 -6.4 4.7 -6.4 c -0.2 0.2 -0.8 0.5 -1.3 0.8 c -0.9 1.5 -2.6 4.3 -4.2 5.5 z m 11 19.3 c -0.2 0 -0.5 -0.1 -0.7 -0.1 l 0.5 0.5 s 0 0.1 0.1 0.1 c 0.1 0.2 0.3 0.3 0.4 0.5 c 0 0 0 0.1 0.1 0.1 c 0.1 0.2 0.3 0.3 0.4 0.5 v 0.1 c 0.1 0.2 0.3 0.4 0.4 0.5 c 0.1 0.2 0.3 0.4 0.4 0.6 l 0.1 0.1 c 0.1 0.2 0.3 0.4 0.4 0.5 c 0 0 0 0.1 0.1 0.1 c 0.1 0.2 0.3 0.4 0.4 0.6 c 0.1 0.2 0.2 0.4 0.4 0.6 l 0.3 0.6 s 0 0.1 0.1 0.1 c 0.1 0.2 0.2 0.4 0.3 0.5 c 0 0 0 0.1 0.1 0.1 c 0.1 0.2 0.2 0.4 0.3 0.5 v 0.1 c 0.1 0.2 0.1 0.3 0.2 0.5 c 0 0 0 0.1 0.1 0.1 c 0.1 0.2 0.1 0.3 0.2 0.5 c 0 0.1 0 0.1 0.1 0.2 c 0.1 0.2 0.1 0.3 0.2 0.5 c 0 0.1 0 0.1 0.1 0.2 c 0 0.1 0.1 0.3 0.1 0.4 c 0 0.1 0 0.2 0.1 0.3 c 0 0.1 0.1 0.2 0.1 0.4 v 0.2 c 0.7 1 1 1.8 1 1.8 c -0.5 -4.1 -3.3 -8.4 -6.3 -11.7 z m -0.9 6 l 0.8 2 c 0.6 0.3 0.9 0.5 0.9 0.5 l -0.8 -2.3 c -0.3 -0.1 -0.6 -0.2 -0.9 -0.2 z" stroke-linecap="round" />
</g>
		<g transform="matrix(1 0 0 1 -238.45 47.25)" id="Layer_1"  >
<path style="stroke: none; stroke-width: 1; stroke-dasharray: none; stroke-linecap: butt; stroke-dashoffset: 0; stroke-linejoin: miter; stroke-miterlimit: 4; fill: none; fill-rule: nonzero; opacity: 1;"  transform=" translate(-45, -119.6)" d="m 44.6 119.2 l 0.8 0.8 v -0.6 l -0.8 -0.2 z" stroke-linecap="round" />
</g>
		<g transform="matrix(1 0 0 1 -249.7 4.06)" id="Layer_1"  >
<linearGradient id="SVGID_SVGID_1__6" gradientUnits="userSpaceOnUse" gradientTransform="matrix(1 0 0 1 0 0)"  x1="21.003" y1="76.418" x2="46.515" y2="76.418">
<stop offset="0%" style="stop-color:rgb(255,255,255);stop-opacity: 1"/>
<stop offset="13.4%" style="stop-color:rgb(231,231,241);stop-opacity: 1"/>
<stop offset="38.9%" style="stop-color:rgb(188,187,216);stop-opacity: 1"/>
<stop offset="73.7%" style="stop-color:rgb(132,132,181);stop-opacity: 1"/>
<stop offset="93.8%" style="stop-color:rgb(103,104,163);stop-opacity: 1"/>
</linearGradient>
<path style="stroke: none; stroke-width: 1; stroke-dasharray: none; stroke-linecap: butt; stroke-dashoffset: 0; stroke-linejoin: miter; stroke-miterlimit: 4; fill: url(#SVGID_SVGID_1__6); fill-rule: nonzero; opacity: 1;"  transform=" translate(-33.75, -76.41)" d="M 34.8 73.2 c -0.1 0 -0.2 0 -0.4 -0.1 c -0.2 0 -0.4 0 -0.5 -0.1 c -5.1 -0.5 -9.7 1.2 -12.1 2.3 l -0.8 1.9 s 14.5 -9.5 25.5 2.7 c 0 0 -4 -5.5 -11.7 -6.7 z" stroke-linecap="round" />
</g>
		<g transform="matrix(1 0 0 1 -217.7 2.9)" id="Layer_1"  >
<linearGradient id="SVGID_SVGID_2__7" gradientUnits="userSpaceOnUse" gradientTransform="matrix(1 0 0 1 0 0)"  x1="58.898" y1="75.232" x2="72.583" y2="75.232">
<stop offset="9.6%" style="stop-color:rgb(103,104,163);stop-opacity: 1"/>
<stop offset="31.8%" style="stop-color:rgb(128,128,179);stop-opacity: 1"/>
<stop offset="80.7%" style="stop-color:rgb(207,206,227);stop-opacity: 1"/>
<stop offset="100%" style="stop-color:rgb(255,255,255);stop-opacity: 1"/>
</linearGradient>
<path style="stroke: none; stroke-width: 1; stroke-dasharray: none; stroke-linecap: butt; stroke-dashoffset: 0; stroke-linejoin: miter; stroke-miterlimit: 4; fill: url(#SVGID_SVGID_2__7); fill-rule: nonzero; opacity: 1;"  transform=" translate(-65.75, -75.25)" d="M 72 75.6 c -2.5 -1.1 -7.5 -2.9 -13.1 -2.1 c 7.5 -0.4 13.7 3.7 13.7 3.7 l -0.6 -1.6 z" stroke-linecap="round" />
</g>
		<g transform="matrix(1 0 0 1 -254.7 2.07)" id="Layer_1"  >
<linearGradient id="SVGID_SVGID_3__8" gradientUnits="userSpaceOnUse" gradientTransform="matrix(1 0 0 1 0 0)"  x1="20.053" y1="74.408" x2="37.551" y2="74.408">
<stop offset="0%" style="stop-color:rgb(255,255,255);stop-opacity: 1"/>
<stop offset="15.5%" style="stop-color:rgb(231,231,241);stop-opacity: 1"/>
<stop offset="45.2%" style="stop-color:rgb(188,188,216);stop-opacity: 1"/>
<stop offset="85.7%" style="stop-color:rgb(132,132,181);stop-opacity: 1"/>
<stop offset="93.8%" style="stop-color:rgb(122,122,175);stop-opacity: 1"/>
</linearGradient>
<path style="stroke: none; stroke-width: 1; stroke-dasharray: none; stroke-linecap: butt; stroke-dashoffset: 0; stroke-linejoin: miter; stroke-miterlimit: 4; fill: url(#SVGID_SVGID_3__8); fill-rule: nonzero; opacity: 1;"  transform=" translate(-28.75, -74.42)" d="m 20.8 74.4 l -0.8 1.8 s 8.6 -5 17.5 -2.5 c -7 -2.3 -14 -0.3 -16.7 0.7 z" stroke-linecap="round" />
</g>
		<g transform="matrix(1 0 0 1 -219.8 2.27)" id="Layer_1"  >
<linearGradient id="SVGID_SVGID_4__9" gradientUnits="userSpaceOnUse" gradientTransform="matrix(1 0 0 1 0 0)"  x1="53.709" y1="74.609" x2="73.564" y2="74.609">
<stop offset="9.6%" style="stop-color:rgb(122,122,175);stop-opacity: 1"/>
<stop offset="35.9%" style="stop-color:rgb(149,148,192);stop-opacity: 1"/>
<stop offset="93.7%" style="stop-color:rgb(238,238,245);stop-opacity: 1"/>
<stop offset="100%" style="stop-color:rgb(255,255,255);stop-opacity: 1"/>
</linearGradient>
<path style="stroke: none; stroke-width: 1; stroke-dasharray: none; stroke-linecap: butt; stroke-dashoffset: 0; stroke-linejoin: miter; stroke-miterlimit: 4; fill: url(#SVGID_SVGID_4__9); fill-rule: nonzero; opacity: 1;"  transform=" translate(-63.65, -74.62)" d="M 53.7 74.8 c 9.9 -4.1 19.9 1.6 19.9 1.6 l -0.7 -1.6 c -2.7 -1.1 -10.9 -3.8 -19.2 0 z" stroke-linecap="round" />
</g>
		<g transform="matrix(1 0 0 1 -236.75 4.88)" id="Layer_1"  >
<path style="stroke: none; stroke-width: 1; stroke-dasharray: none; stroke-linecap: butt; stroke-dashoffset: 0; stroke-linejoin: miter; stroke-miterlimit: 4; fill: rgb(161,114,5); fill-rule: nonzero; opacity: 1;"  transform=" translate(-46.7, -77.23)" d="M 46.5 79.8 c -9.2 -10.1 -20.8 -5.2 -24.4 -3.2 l -0.4 0.9 l 0.7 0.4 s 12.2 -8.7 22.7 2.1 c 1.6 1.6 1.8 1.2 3 0 c 11.9 -11.3 22.3 -2.2 22.6 -2.3 c 0.4 -0.1 1 -0.4 1 -0.4 l -0.3 -0.8 c -3.6 -2 -15.2 -7.1 -24.6 2.9 l -0.3 0.4 z m 0.3 -0.4" stroke-linecap="round" />
</g>
		<g transform="matrix(1 0 0 1 -250.1 -5.37)" id="Layer_1"  >
<linearGradient id="SVGID_SVGID_5__10" gradientUnits="userSpaceOnUse" gradientTransform="matrix(1 0 0 1 0 0)"  x1="19.647" y1="66.972" x2="47.167" y2="66.972">
<stop offset="73.2%" style="stop-color:rgb(255,255,255);stop-opacity: 1"/>
<stop offset="100%" style="stop-color:rgb(142,142,188);stop-opacity: 1"/>
</linearGradient>
<path style="stroke: none; stroke-width: 1; stroke-dasharray: none; stroke-linecap: butt; stroke-dashoffset: 0; stroke-linejoin: miter; stroke-miterlimit: 4; fill: url(#SVGID_SVGID_5__10); fill-rule: nonzero; opacity: 1;"  transform=" translate(-33.35, -66.98)" d="M 19.6 75.2 S 35 67.5 46.5 80 l 0.6 -22.6 s -10.9 -8 -20.5 0.4 l -7 17.4 z" stroke-linecap="round" />
</g>
		<g transform="matrix(1 0 0 1 -223.2 -5.46)" id="Layer_1"  >
<linearGradient id="SVGID_SVGID_6__11" gradientUnits="userSpaceOnUse" gradientTransform="matrix(1 0 0 1 0 0)"  x1="42.95" y1="66.876" x2="55.097" y2="66.876">
<stop offset="9.6%" style="stop-color:rgb(122,122,175);stop-opacity: 1"/>
<stop offset="35.9%" style="stop-color:rgb(149,148,192);stop-opacity: 1"/>
<stop offset="93.7%" style="stop-color:rgb(238,238,245);stop-opacity: 1"/>
<stop offset="100%" style="stop-color:rgb(255,255,255);stop-opacity: 1"/>
</linearGradient>
<path style="stroke: none; stroke-width: 1; stroke-dasharray: none; stroke-linecap: butt; stroke-dashoffset: 0; stroke-linejoin: miter; stroke-miterlimit: 4; fill: url(#SVGID_SVGID_6__11); fill-rule: nonzero; opacity: 1;"  transform=" translate(-60.25, -66.89)" d="M 73.9 75.2 S 58.4 67.4 46.6 80 l 0.6 -22.6 s 11.8 -8.4 20.1 0.4 l 6.6 17.4 z" stroke-linecap="round" />
</g>
		<g transform="matrix(1 0 0 1 -236.75 -8.8)" id="Layer_1"  >
<path style="stroke: none; stroke-width: 1; stroke-dasharray: none; stroke-linecap: butt; stroke-dashoffset: 0; stroke-linejoin: miter; stroke-miterlimit: 4; fill: rgb(0,0,0); fill-rule: nonzero; opacity: 1;"  transform=" translate(-46.7, -63.55)" d="m 29.4 62.6 l 0.3 -0.1 c 0.4 -0.1 0.6 -0.3 0.8 -1 h 0.3 c -0.1 0.4 -0.2 0.8 -0.2 1.2 c -0.1 0.4 -0.1 0.7 -0.2 1.1 h -0.3 c 0 -0.5 0 -0.9 -0.5 -0.8 h -0.3 l -0.5 1.5 c -0.2 0.6 0 0.6 0.8 0.5 l -0.1 0.3 c -0.5 0.1 -1.1 0.2 -1.7 0.3 c -0.5 0.1 -0.8 0.2 -1.6 0.3 l 0.1 -0.3 c 0.8 -0.2 0.9 -0.4 1.1 -1.1 l 0.9 -2.7 c 0.2 -0.8 0.2 -1.1 -0.5 -1 l 0.1 -0.3 c 0.5 0 1.3 -0.1 2 -0.3 c 0.8 -0.2 1.6 -0.4 2.5 -0.6 l -0.1 1.4 l -0.4 0.1 c 0 -1 -0.3 -0.8 -1.3 -0.6 c -0.6 0.1 -0.7 0.2 -0.9 0.8 l -0.3 1.3 z M 33.7 61.1 c 0.1 -0.7 0.2 -0.9 -0.5 -0.9 l 0.1 -0.4 c 0.4 -0.1 0.7 -0.1 1.2 -0.1 c 0.5 -0.1 0.8 -0.1 1.3 -0.2 v 0.4 c -0.7 0.1 -0.8 0.3 -0.9 1 l -0.7 2.7 c -0.2 0.9 -0.2 1.1 0.5 1.1 l -0.1 0.3 h -1.4 c -0.4 0 -1 0.1 -1.5 0.1 l 0.1 -0.3 c 0.7 -0.1 0.9 -0.4 1.1 -1.2 l 0.8 -2.5 z M 36.9 63.7 c -0.1 0.2 -0.2 0.3 -0.3 0.7 c -0.2 0.4 0.3 0.5 0.5 0.6 l -0.1 0.3 c -0.3 0 -0.6 -0.1 -0.9 -0.1 h -0.8 l 0.1 -0.3 c 0.6 0 0.9 -0.7 1.2 -1.3 c 0.8 -1.7 1.8 -3.9 1.8 -3.9 l 0.6 0.1 s 0.7 3.6 0.8 4.4 c 0.1 0.7 0.1 0.8 0.2 1.1 c 0 0.2 0.3 0.4 0.5 0.5 l -0.1 0.3 c -0.4 -0.1 -0.7 -0.2 -1.2 -0.3 c -0.4 -0.1 -0.8 -0.2 -1.3 -0.2 l 0.1 -0.4 c 0.3 0 0.7 0 0.7 -0.4 c 0 -0.1 -0.1 -0.6 -0.1 -0.7 l -0.1 -0.4 s -0.4 -0.1 -0.8 -0.1 c -0.4 -0.1 -0.8 -0.1 -0.8 -0.1 v 0.2 z m 1 -0.7 c 0.4 0 0.7 0.1 0.7 0.1 l -0.4 -2.1 l -0.9 1.9 s 0.2 0 0.6 0.1 z M 44.5 63.4 l -0.3 -0.1 c 0 -0.8 0 -1.5 -0.4 -1.7 c -0.4 -0.2 -0.5 0 -0.6 0.7 l -0.3 3 c -0.1 0.8 0 1.1 0.6 1.5 v 0.4 c -0.5 -0.2 -0.9 -0.4 -1.2 -0.6 c -0.4 -0.2 -0.8 -0.3 -1.3 -0.5 l 0.1 -0.3 c 0.7 0.2 0.7 0 0.8 -0.8 l 0.3 -3 c 0.1 -0.6 0.2 -1 -0.3 -1.1 c -0.6 -0.2 -0.6 0.4 -0.8 1.1 l -0.3 -0.1 l 0.2 -1.7 s 1.1 0.2 2 0.6 c 1 0.4 1.7 0.9 1.7 0.9 l -0.2 1.7 z M 51.4 67.1 c 0.6 -0.4 0.6 -0.7 0.6 -1.4 l -0.2 -3 c 0 -0.8 0 -1.2 -0.7 -0.9 v -0.4 c 0.5 -0.2 0.7 -0.3 1.1 -0.5 c 0.5 -0.2 0.9 -0.3 1.4 -0.4 v 0.4 c -0.7 0.2 -0.6 0.6 -0.6 1.4 l 0.1 2.5 c 0 0.9 0.1 1.4 1 1.2 c 1.1 -0.3 1.5 -0.8 1.6 -1.9 h 0.3 V 66 c -1.4 0.3 -3 0.9 -3.4 1 c -0.4 0.2 -0.9 0.4 -1.3 0.6 l 0.1 -0.5 z M 55.6 60.3 c 0.6 -0.1 1 -0.1 1.4 -0.1 h 1.4 v 0.3 c -0.7 0 -0.7 0.5 -0.6 1.2 l 0.2 1.4 c 0.1 1.2 0.5 1.9 1.6 1.8 c 1.1 0 1.1 -0.6 1 -1.7 l -0.3 -1.2 c 0 -0.3 -0.1 -0.7 -0.3 -1 c -0.1 -0.3 -0.3 -0.4 -0.6 -0.4 v -0.3 c 0.3 0 0.6 0.1 0.9 0.1 c 0.3 0 0.4 0 0.8 0.1 v 0.3 c -0.2 0 -0.4 0.1 -0.5 0.4 c -0.1 0.3 0 0.7 0 1 l 0.1 0.8 c 0.2 1.7 0.4 2.5 -1.6 2.6 c -1.2 0.1 -2.5 -0.4 -2.7 -2.3 l -0.2 -1.5 c -0.1 -0.8 -0.1 -1.1 -0.8 -1.1 l 0.2 -0.4 z M 66.2 65.7 c 0.3 0.4 0.5 0.7 0.9 0.7 l 0.1 0.3 c -0.5 -0.1 -0.8 -0.1 -1.3 -0.2 c -0.4 -0.1 -0.8 -0.1 -1.3 -0.2 V 66 h 0.4 c 0.1 0 0.1 -0.1 0.1 -0.2 c 0 -0.2 -0.3 -0.6 -0.4 -0.7 L 64 64 l -0.4 0.6 c -0.1 0.2 -0.3 0.6 -0.3 0.8 c 0 0.3 0.3 0.4 0.5 0.5 v 0.3 c -0.4 -0.1 -0.6 -0.1 -1 -0.2 c -0.3 0 -0.6 -0.1 -0.8 -0.1 v -0.3 c 0.4 0.1 0.6 -0.3 0.8 -0.6 l 0.9 -1.3 l -1 -1.5 c -0.1 -0.2 -0.2 -0.4 -0.4 -0.6 c -0.2 -0.3 -0.3 -0.3 -0.5 -0.4 v -0.3 c 0.3 0.1 0.7 0.2 1.1 0.3 c 0.4 0.1 0.8 0.1 1.1 0.2 v 0.4 c -0.2 0 -0.5 -0.1 -0.4 0.2 c 0 0.2 0.1 0.3 0.2 0.5 l 0.5 0.7 l 0.3 -0.5 c 0.1 -0.2 0.2 -0.3 0.3 -0.4 c 0.1 -0.2 -0.2 -0.4 -0.5 -0.4 v -0.3 c 0.3 0 0.5 0.1 0.8 0.1 h 0.7 l 0.1 0.3 c -0.4 0 -0.5 0.2 -0.8 0.6 l -0.7 1 l 1.7 2.1 z" stroke-linecap="round" />
</g>
		<g transform="matrix(1 0 0 1 56.2 25.35)" id="Layer_1"  >
<path style="stroke: none; stroke-width: 1; stroke-dasharray: none; stroke-linecap: butt; stroke-dashoffset: 0; stroke-linejoin: miter; stroke-miterlimit: 4; fill: rgb(31,43,125); fill-rule: nonzero; opacity: 1;"  transform=" translate(-339.65, -97.7)" d="M 163.6 114.1 c -1 0 -3.7 8.1 -22 8.1 c -6.6 0 -6 -1.9 -6 -6.6 V 77.3 c 0 -6.9 5.8 -4.9 5.8 -6.7 c 0 -0.9 -0.5 -1.1 -1.5 -1.1 c -1.2 0 -3.1 0.3 -7.6 0.3 c -3.9 0 -6.3 -0.3 -8 -0.3 c -1 0 -1.6 0.2 -1.6 1 c 0 1.6 6.6 1 6.6 5.1 v 40.1 c 0 3.7 -0.2 5.9 -2.2 6.9 c -2.5 1.3 -3.3 1.1 -3.5 2.1 c 0 0.6 0.5 0.8 1.2 0.8 c 3.2 0 6.5 -0.2 9.6 -0.3 c 6 -0.2 12 0.3 18 0.3 c 3.5 0 5.2 0.2 7.8 -2.7 c 1.9 -2.1 4 -4.8 4 -7.7 c 0 -0.2 -0.1 -1 -0.6 -1 z M 179.5 118.7 V 76.2 c 0 -5.9 5.7 -4.1 5.7 -6 c 0 -0.6 -0.2 -0.8 -1.5 -0.8 c -2.5 0 -4.9 0.3 -7.4 0.3 c -2.9 0 -5.8 -0.3 -8.7 -0.3 c -0.6 0 -0.8 0.2 -0.8 0.9 c 0 1.7 6.3 0.2 6.4 5.9 v 40.5 c 0 7.8 -6.2 5.2 -6.2 7.5 c 0 0.8 0.2 1.2 1.7 1.2 c 1.1 0 2.8 -0.3 7.6 -0.3 c 3.4 0 6.8 0.3 8.6 0.3 c 1.3 0 1.6 -0.2 1.6 -0.8 c 0 -2.3 -7 -0.5 -7 -5.9 z M 242.7 69.4 c -1.1 0 -2.3 0.3 -6.1 0.3 c -1.7 0 -3.5 -0.3 -5.2 -0.3 c -0.8 0 -1.2 0.2 -1.2 1 c 0 1.8 5.1 0.3 5.1 4 c 0.3 1.7 -0.6 4.2 -1.1 5.4 l -13.8 33.9 c -0.4 0.9 -0.6 2.2 -1.4 2.2 c -0.9 0 -1.4 -1.8 -3.2 -6 L 202 77.3 c -0.3 -0.7 -0.7 -2 -0.7 -3.1 c 0 -2.8 3.3 -2.9 3.2 -4 c 0 -0.5 -0.6 -0.8 -1.1 -0.8 c -1.1 0 -4.1 0.3 -6.2 0.3 c -2.4 0 -4.8 -0.3 -7.3 -0.3 c -0.7 0 -1.1 0.4 -1.1 1.1 c 0 1.7 4.1 0.2 6.1 5 l 19.5 46.2 c 0.7 1.7 1.7 5 2.9 5 s 1.7 -2.6 2.6 -4.6 l 19.7 -46.6 c 2.2 -5.3 4.4 -3.3 4.4 -5.1 c 0.1 -0.6 -0.4 -1 -1.3 -1 z M 288.6 114.1 c -1 0 -3.7 8.1 -22 8.1 c -6.6 0 -6 -1.9 -6 -6.6 V 101 c 0 -1.2 -0.2 -2.5 1.4 -2.5 h 11.7 c 6.6 0 4 7 6.4 7 c 0.6 0 0.9 -0.3 0.9 -1 c 0 -2.1 -0.2 -4.2 -0.2 -6.2 c 0 -2.5 0.2 -5.2 0.2 -8 c 0 -0.6 -0.2 -1.5 -0.9 -1.5 c -1.9 0 0.2 6.3 -8 6.3 h -8.5 c -3.2 0 -3 0 -3 -2.7 V 77.7 c 0 -5.3 -0.2 -5 7.4 -5 c 3.2 0 11.4 -0.5 13.4 2.2 c 1.3 1.8 0 5.6 1.9 5.6 c 0.5 0 1.6 -0.6 1.6 -9.4 c 0 -0.9 -0.2 -1.7 -0.8 -1.7 c -2.5 0 -9.7 0.3 -11.3 0.3 c -3.3 0 -7.4 -0.3 -22.4 -0.3 c -2.3 0 -2.8 0.3 -2.8 0.9 c 0 0.9 1.7 1.1 2.4 1.3 c 4.3 0.6 4.3 4.4 4.3 8 v 36.1 c 0 3.7 -0.2 5.9 -2.2 6.9 c -2.5 1.3 -3.3 1.1 -3.5 2.1 c 0 0.6 0.5 0.8 1.2 0.8 c 3.2 0 6.5 -0.2 9.6 -0.3 c 6 -0.2 12 0.3 18 0.3 c 3.5 0 5.2 0.2 7.8 -2.7 c 1.9 -2.1 4 -4.8 4 -7.7 c 0 -0.2 -0.1 -1 -0.6 -1 z M 420.2 68.7 c -16.2 0 -29 11.9 -29 28.4 c 0 16.7 10.5 28.9 27.7 28.9 c 17.6 0 29.9 -11.5 29.9 -29.3 c -0.1 -16.3 -12.5 -28 -28.6 -28 z m 2 54.9 c -15.7 0 -25.2 -14.2 -25.2 -28.8 c 0 -12.5 7.6 -23.5 20.9 -23.5 c 15.4 0 25.1 14 25.1 28.4 c 0 14.7 -9.3 23.9 -20.8 23.9 z M 483.7 68.7 c -16.2 0 -29 11.9 -29 28.4 c 0 16.7 10.5 28.9 27.7 28.9 c 17.6 0 29.9 -11.5 29.9 -29.3 c -0.1 -16.3 -12.5 -28 -28.6 -28 z m 2 54.9 c -15.7 0 -25.2 -14.2 -25.2 -28.8 c 0 -12.5 7.6 -23.5 20.9 -23.5 c 15.4 0 25.2 14 25.2 28.4 c -0.1 14.7 -9.4 23.9 -20.9 23.9 z M 556 114.1 c -1 0 -3.7 8.1 -22 8.1 c -6.6 0 -6 -1.9 -6 -6.6 V 77.3 c 0 -6.9 5.8 -4.9 5.8 -6.7 c 0 -0.9 -0.5 -1.1 -1.5 -1.1 c -1.2 0 -3.1 0.3 -7.6 0.3 c -3.9 0 -6.3 -0.3 -8 -0.3 c -1 0 -1.6 0.2 -1.6 1 c 0 1.6 6.6 1 6.6 5.1 v 40.1 c 0 3.7 -0.2 5.9 -2.2 6.9 c -2.5 1.3 -3.3 1.1 -3.5 2.1 c 0 0.6 0.5 0.8 1.2 0.8 c 3.2 0 6.5 -0.2 9.7 -0.3 c 6 -0.2 12 0.3 18 0.3 c 3.5 0 5.2 0.2 7.7 -2.7 c 1.9 -2.1 4 -4.8 4 -7.7 c 0 -0.2 0 -1 -0.6 -1 z" stroke-linecap="round" />
</g>
		<g transform="matrix(1 0 0 1 52.5 -34.85)" id="Layer_1"  >
<path style="stroke: none; stroke-width: 1; stroke-dasharray: none; stroke-linecap: butt; stroke-dashoffset: 0; stroke-linejoin: miter; stroke-miterlimit: 4; fill: rgb(161,114,5); fill-rule: nonzero; opacity: 1;"  transform=" translate(-335.95, -37.5)" d="M 104.9 56.7 H 567 v 1.2 H 104.9 z M 203.7 17.5 h 3.4 v 27.7 h -3.4 z M 280.6 42.2 h -14.7 v -9.6 h 14.4 v -3.1 h -14.4 v -8.9 h 14.7 v -3.1 h -18.1 v 27.7 h 18.1 z M 237 45.2 l 11.1 -27.7 h -3.9 l -9.4 24 l -9.3 -24 h -4 l 11.2 27.7 z M 167 23.1 l 16.1 22.1 h 3.3 V 17.5 H 183 v 21.7 l -16 -21.7 h -3.5 v 27.7 h 3.5 z M 134.9 45.7 c 7.5 0 11.3 -4.4 11.3 -11.3 V 17.5 h -3.5 v 16.9 c 0 5.1 -2.7 8.3 -7.9 8.3 c -5.1 0 -7.8 -3.2 -7.8 -8.3 V 17.5 h -3.5 v 17 c 0.1 6.8 3.9 11.2 11.4 11.2 z M 528 32.6 h 14.4 v -3.1 H 528 v -8.9 h 14.7 v -3.1 h -18.1 v 27.7 h 3.4 z M 434.7 45.2 h 3.4 V 33.5 l 10.9 -16 h -4 l -8.6 12.9 l -8.6 -12.9 h -4.1 l 11 16 z M 397.1 45.2 h 3.5 V 20.6 h 8.8 v -3.1 h -21.1 v 3.1 h 8.8 z M 301.3 34.2 h 5.6 l 7 11 h 4.1 l -7.5 -11.3 c 3.8 -0.3 7.2 -3.1 7.2 -8.1 c 0 -5.1 -3.7 -8.4 -8.7 -8.4 h -11.1 v 27.7 h 3.4 V 34.2 z m 0 -13.6 h 7.3 c 3.3 0 5.6 2.1 5.6 5.3 c 0 3.1 -2.3 5.3 -5.6 5.3 h -7.3 V 20.6 z M 494.6 45.7 c 8.2 0 13.8 -6.2 13.8 -14.3 c 0 -8.2 -5.6 -14.3 -13.8 -14.3 c -8.2 0 -13.8 6.2 -13.8 14.3 c 0.1 8.2 5.6 14.3 13.8 14.3 z m 0 -25.6 c 6.2 0 10.2 4.8 10.2 11.3 c 0 6.4 -4 11.3 -10.2 11.3 c -6.2 0 -10.2 -4.8 -10.2 -11.3 c 0 -6.5 4 -11.3 10.2 -11.3 z M 368.7 17.5 h 3.4 v 27.7 h -3.4 z M 343 42.7 c -3.9 0 -6.9 -1.9 -8.7 -4 l -2.1 2.7 c 2.3 2.6 5.9 4.4 10.6 4.4 c 7.5 0 10.2 -4.2 10.2 -8.1 c 0 -10.3 -16.4 -6.8 -16.4 -13 c 0 -2.6 2.4 -4.4 5.7 -4.4 c 3 0 5.9 1 8 3.3 l 2.1 -2.5 c -2.3 -2.5 -5.6 -3.9 -9.8 -3.9 c -5.5 0 -9.6 3.2 -9.6 7.7 c 0 9.9 16.4 5.9 16.4 13 c 0.1 2.1 -1.5 4.8 -6.4 4.8 z" stroke-linecap="round" />
</g>
		<g transform="matrix(1 0 0 1 56 25.01)" id="Layer_1"  >
<path style="stroke: none; stroke-width: 1; stroke-dasharray: none; stroke-linecap: butt; stroke-dashoffset: 0; stroke-linejoin: miter; stroke-miterlimit: 4; fill: rgb(31,43,125); fill-rule: nonzero; opacity: 1;"  transform=" translate(-339.45, -97.36)" d="M 359.4 74.6 c 0 -2.4 1.7 -2.4 4.3 -2.4 c 9.1 0 16.5 5.1 16.5 14.6 c 0 7.1 -4.7 11 -12.8 11 c -2.8 0 -4.5 -0.5 -5.1 -0.5 c -0.4 0 -0.8 0.2 -0.8 0.7 c 0 1.4 4.6 1.8 5.4 1.8 c 16.8 0 19.2 -12 19.2 -15.2 c 0 -11.8 -11.1 -15.3 -21.2 -15.3 c -3.8 0 -5.1 0.3 -9 0.3 c -4.6 0 -7.4 -0.3 -8.1 -0.3 c -0.6 0 -1 0.6 -1 1.2 c 0 2.8 6.5 -2 6.5 7.5 v 38 c 0 8.8 -6.2 6.3 -6.2 8.5 c 0 0.7 0.8 0.9 1.3 0.9 c 2.3 0 4.9 -0.3 8.6 -0.3 c 4.7 0 5.9 0.3 8.5 0.3 c 2 0 2.3 -0.4 2.3 -0.9 c 0 -2.7 -8.3 1.4 -8.3 -10 V 74.6 z M 321.4 96.8 c 5.5 -2.2 10 -7.5 10 -13.7 c 0 -15.3 -17.5 -13.7 -18.7 -13.7 c -4.1 0 -8.6 0.3 -13.2 0.3 c -4 0 -3.6 -0.3 -5.1 -0.3 c -0.9 0 -1.6 0.5 -1.6 0.9 c 0 2.7 6.8 -0.6 6.8 7 v 40.3 c 0 6 -5.8 4.9 -5.8 6.9 c 0 0.5 0.3 0.9 0.8 0.9 c 3 0 6 -0.3 9 -0.3 c 6.6 0 8.4 0.3 9.1 0.3 c 0.6 0 1.3 0.2 1.3 -0.6 c 0 -2.7 -8.2 -0.2 -8.2 -7 v -16.7 c 0 -0.8 -0.5 -2.2 2.1 -2.2 c 8.9 0 7.7 -0.2 10.5 4.2 l 8.8 13.8 c 3 4.5 6.1 8.5 11.9 8.5 c 0.7 0 5.1 0 5.1 -0.9 c 0 -1.9 -3.9 1 -9.6 -7.7 l -13.2 -20 z M 305.8 75 c 0 -3.1 1.7 -2.9 4.5 -2.9 c 7.7 0 15.1 3.2 15.1 12.9 c 0 9.8 -7.6 11.2 -11 11.2 c -3.7 0 -8.6 0.4 -8.6 -1.1 V 75 z" stroke-linecap="round" />
</g>
</g>
</g>
</svg>